<svg version="1.1" xmlns="http://www.w3.org/2000/svg" viewBox="0 0 410.2955941603592 419.45275215712536" width="1230.8867824810777" height="1258.358256471376">
  <!-- svg-source:excalidraw -->

  <defs>
    <style class="style-fonts">
      @font-face {
        font-family: "Virgil";
        src: url("https://excalidraw.com/Virgil.woff2");
      }
      @font-face {
        font-family: "Cascadia";
        src: url("https://excalidraw.com/Cascadia.woff2");
      }
    </style>
  </defs>
  <rect x="0" y="0" width="410.2955941603592" height="419.45275215712536" fill="#ffffff"></rect><g stroke-linecap="round"><g transform="translate(204.992040976809 18.070034798214692) rotate(359.16229331699867 -0.6493689319671603 98.44842526789125)"><path d="M-1.12 0.34 C-1.27 33.36, -1.96 164.93, -2.02 197.42 M0.49 -0.52 C0.83 32.25, 0.81 163.12, 0.34 195.89" stroke="#000000" stroke-width="2" fill="none"></path></g></g><mask></mask><g stroke-linecap="round"><g transform="translate(390.55956701847015 209.21658171595845) rotate(359.16229331699867 -93.40626303079273 1.4515618875875589)"><path d="M-0.66 1.13 C-31.64 1.28, -155.99 1.1, -187 1.21 M1.19 0.68 C-29.86 0.91, -156.57 1.85, -188 2.22" stroke="#000000" stroke-width="2" fill="none"></path></g></g><mask></mask><g stroke-linecap="round" transform="translate(160.93698250847206 172.80640486842276) rotate(359.16229331699867 44.21241264115781 37.14919645265945)"><path d="M4.45 19.77 C4.45 19.77, 4.45 19.77, 4.45 19.77 M4.45 19.77 C4.45 19.77, 4.45 19.77, 4.45 19.77 M1.23 35.17 C8.04 25.37, 16.67 19.52, 25.09 5.09 M0.12 36.34 C7.75 28.46, 12.89 20.99, 25.42 6.34 M6.28 42.76 C17.24 31.18, 26.11 20.97, 36.68 6.04 M5.46 44.41 C16.35 30.24, 28.53 15.57, 38.58 4.6 M7.97 54.01 C19.22 38.1, 29.88 24.45, 52.05 4.92 M7.77 52.17 C21.68 38.01, 34.41 23.57, 50.94 3.42 M11.64 60.46 C24.61 47.26, 35.78 35.07, 60.51 6.14 M10.41 61.48 C20.5 50.12, 31.36 37.56, 59.44 7.03 M16.03 67.35 C31.62 49.16, 45.15 32.62, 68.64 8.96 M16.97 66.55 C35.33 43.88, 53.88 23.88, 67.82 9.02 M23.66 71.15 C35.75 57.37, 45.67 46.76, 73.93 12.52 M24.08 69.62 C38.28 52.83, 52.49 36.47, 75.58 10.52 M31.94 74.62 C40.25 62.07, 50.57 50.84, 81.39 15.77 M31.89 75.09 C48.37 56.19, 64.81 35.28, 81.09 18.14 M39.24 74.33 C58.04 57.58, 73.48 39.79, 85.57 23.6 M40.56 75.09 C52.31 62.19, 64.15 48.44, 86.96 23.23 M51.82 76.08 C64.13 60.28, 76.03 45.81, 88.82 35.35 M50.63 76.07 C63.31 60.8, 75.12 47.59, 86.67 34.53 M57.74 80.84 C64.33 69.98, 75.09 60.36, 90.34 46.15 M59.29 78.81 C68.94 66.39, 80.46 54.76, 89.17 44.51 M8.66 60.15 C8.66 60.15, 8.66 60.15, 8.66 60.15 M8.66 60.15 C8.66 60.15, 8.66 60.15, 8.66 60.15 M32.81 70.57 C22.47 62.85, 16.12 55.23, 1.56 43.75 M31.88 69.12 C19.54 59.23, 8.87 49.61, 0.66 42.4 M44.25 68.7 C31.39 60.9, 20.63 47.13, 2.86 33.47 M44.38 70.02 C32.08 58.82, 16.85 45.55, 3.93 35.75 M57.06 67.8 C35.04 51.43, 17.77 34.24, 6.75 26.73 M55.82 70.13 C45.31 60.33, 34.84 51.37, 5.44 26.53 M63.9 67.3 C50.95 55.19, 38.05 41.08, 8.68 15.62 M63.45 66.8 C44.76 48.82, 25.99 34.12, 7.05 15.56 M71.35 61.54 C56.87 49.77, 41.5 37.21, 13.82 10.14 M72.71 63.01 C49.83 43.33, 29.58 24.54, 14.3 11.12 M80.15 57.4 C63.11 43.59, 43.78 25.79, 20.51 5.5 M80.94 58.11 C68.18 48.2, 54.58 37.19, 20.27 6.34 M86.03 52.72 C69 38.96, 55.43 23.8, 26.94 2.71 M84.54 52.25 C73.45 42.05, 59.66 31.7, 25.67 0.92 M90.02 45.62 C73.28 32.2, 56.56 17.44, 37.66 1.01 M88.81 44.9 C76.7 35.33, 63.71 24.27, 35.76 -0.42 M92.55 38.99 C82.42 27.45, 66.68 16.15, 47.9 -0.55 M94.31 39.36 C78.98 25.78, 62.87 12.68, 48.04 -1.18 M85.89 22.86 C80.26 16.11, 69.23 8.16, 64.42 1.79 M86.81 22.27 C80.09 15.52, 72.98 9.83, 65.54 3.86" stroke="#343a40" stroke-width="1" fill="none"></path><path d="M46.8 0.8 C54.38 0.5, 63.56 2.96, 70.1 6.72 C76.65 10.48, 83.03 17.05, 86.08 23.34 C89.12 29.63, 90.1 37.85, 88.39 44.46 C86.67 51.07, 81.7 58.09, 75.79 63 C69.88 67.91, 60.77 72.41, 52.91 73.92 C45.05 75.43, 36.04 74.38, 28.65 72.07 C21.26 69.76, 13.35 65.4, 8.58 60.07 C3.8 54.75, 0.68 46.86, 0.03 40.1 C-0.63 33.34, 0.8 25.4, 4.66 19.52 C8.53 13.65, 15.92 7.99, 23.2 4.85 C30.48 1.72, 43.7 1.28, 48.34 0.7 C52.99 0.13, 51.09 0.96, 51.08 1.4 M38.57 0.61 C45.69 -0.18, 55.7 2.05, 62.78 4.99 C69.86 7.93, 76.57 12.5, 81.05 18.24 C85.53 23.99, 89.63 32.93, 89.66 39.46 C89.69 45.99, 86.14 52.07, 81.23 57.42 C76.32 62.78, 67.5 69.08, 60.19 71.57 C52.88 74.05, 45.25 73.53, 37.37 72.34 C29.49 71.15, 18.78 68.92, 12.9 64.45 C7.03 59.97, 3.75 51.74, 2.12 45.47 C0.48 39.2, 0.99 33.18, 3.1 26.83 C5.21 20.48, 8.65 11.99, 14.79 7.37 C20.93 2.76, 35.83 0.17, 39.92 -0.87 C44.01 -1.92, 39.16 0.52, 39.34 1.11" stroke="#000000" stroke-width="2" fill="none"></path></g><g stroke-linecap="round" transform="translate(6.767453203974242 15.956867420707567) rotate(89.6005625274118 198.3803438762044 193.7695086578542)"><path d="M32 0 M32 0 C128.63 0.55, 225.73 0.68, 364.76 0 M32 0 C117.72 -0.56, 204.05 -1.09, 364.76 0 M364.76 0 C385.54 -1.87, 397.79 9.98, 396.76 32 M364.76 0 C386.2 -0.89, 397.91 10.42, 396.76 32 M396.76 32 C395.89 132.53, 394.45 233.15, 396.76 355.54 M396.76 32 C396.96 140.76, 397.76 249.17, 396.76 355.54 M396.76 355.54 C395.84 377.38, 384.74 389.07, 364.76 387.54 M396.76 355.54 C395.12 377.21, 388.02 389.34, 364.76 387.54 M364.76 387.54 C252.52 386.49, 138.71 384.57, 32 387.54 M364.76 387.54 C265.91 386.51, 165.56 385.51, 32 387.54 M32 387.54 C11.56 386.06, -0.01 377.05, 0 355.54 M32 387.54 C12.65 385.56, -1.54 374.74, 0 355.54 M0 355.54 C-1.72 237.69, -0.32 120.61, 0 32 M0 355.54 C-0.5 273.5, -0.98 190.44, 0 32 M0 32 C-0.76 9.37, 11.63 1.26, 32 0 M0 32 C1.66 9.8, 11 -2.09, 32 0" stroke="transparent" stroke-width="2" fill="none"></path></g></svg>
