<svg version="1.1" xmlns="http://www.w3.org/2000/svg" viewBox="0 0 419.4728731256507 410.31620074618877" width="1258.4186193769522" height="1230.9486022385663">
  <!-- svg-source:excalidraw -->

  <defs>
    <style class="style-fonts">
      @font-face {
        font-family: "Virgil";
        src: url("https://excalidraw.com/Virgil.woff2");
      }
      @font-face {
        font-family: "Cascadia";
        src: url("https://excalidraw.com/Cascadia.woff2");
      }
    </style>
  </defs>
  <rect x="0" y="0" width="419.4728731256507" height="410.31620074618877" fill="#ffffff"></rect><g stroke-linecap="round"><g transform="translate(303.83834570587874 106.14152566462872) rotate(449.15929698923657 -0.6507708359007438 98.20516066745222)"><path d="M-1.04 0.36 C-1.5 33.23, -1.94 164.07, -1.95 196.91 M0.61 -0.5 C0.49 32.05, 0.84 162.43, 0.46 195.11" stroke="#000000" stroke-width="2" fill="none"></path></g></g><mask></mask><g stroke-linecap="round"><g transform="translate(301.7112573363179 295.90345759816955) rotate(449.15929698923657 -93.06333336976093 1.6031363943475299)"><path d="M-0.59 0.62 C-31.52 1.11, -155.69 3.24, -186.63 3.3 M1.31 -0.1 C-29.67 0.05, -156.11 1.45, -187.43 1.75" stroke="#000000" stroke-width="2" fill="none"></path></g></g><mask></mask><g stroke-linecap="round" transform="translate(165.29479876303571 168.01051397739502) rotate(449.15929698923657 44.21241264115781 37.14919645265945)"><path d="M9.81 13.83 C9.81 13.83, 9.81 13.83, 9.81 13.83 M9.81 13.83 C9.81 13.83, 9.81 13.83, 9.81 13.83 M3.57 34.04 C11.56 23.3, 18.77 15.9, 29.6 1.46 M3.03 35.03 C9.76 24.95, 17.46 17.62, 30.68 2.43 M4.74 44.15 C17.61 30.94, 29.12 16.21, 36.89 4.79 M5.79 44.21 C11.92 34.95, 20.35 25.02, 36.87 5.45 M6.73 55.96 C20.86 38.34, 39.19 17.85, 47.88 6.95 M6.71 53.48 C16 43.64, 24.18 34.03, 47.76 6.55 M10.93 58.99 C26.15 42.7, 42.88 23.32, 60.84 3.8 M12.92 59.93 C25.34 44.23, 37.5 29.89, 59.48 4.09 M18.49 66.96 C35.09 46.98, 50.38 25.06, 68.09 7.13 M17.56 65.29 C27.11 54.84, 37.85 42.99, 66.36 8.5 M21.57 71.01 C40 55.67, 54.69 35.87, 74.04 11.17 M23.24 72.48 C34.69 57.77, 47.22 44, 74.05 13.1 M33.75 72.71 C42.26 60.76, 50.75 51.25, 83.05 18.49 M31.44 73.16 C45.02 59.21, 58.91 43.99, 81.51 17.45 M41.12 73.77 C54.58 61.73, 65.22 49.06, 84.36 25.53 M41.74 74.75 C57.91 56.71, 73.42 36.85, 84.97 23.32 M48.31 78.98 C57.43 67.49, 67.4 54.29, 88.16 32.13 M48.96 77.82 C62.29 63.47, 75.98 48.24, 90.16 31.58 M68.69 67.99 C72.56 60.34, 81.35 54.36, 86.15 46.46 M67.4 69.23 C74.51 62.51, 78.77 55.68, 87.94 47.52 M19.96 68.49 C19.96 68.49, 19.96 68.49, 19.96 68.49 M19.96 68.49 C19.96 68.49, 19.96 68.49, 19.96 68.49 M36.72 73.35 C28.56 66.76, 19.1 57.82, 7.42 47.99 M36.92 72.77 C25.73 63.47, 13.93 52.64, 8.22 46.74 M46.36 70.55 C27.65 57.29, 12.2 41.36, 1.74 29.13 M46.57 70.16 C36.62 62.28, 26.55 54.52, -0.02 30.48 M57.38 68.17 C40.35 55.6, 29.99 44.11, 4.19 24.56 M56.03 67.2 C44.08 57.59, 30.49 45.87, 3.91 23.34 M66.72 65.2 C51.97 53.66, 37.33 44.25, 9.04 17.65 M65.46 65.52 C42.59 46.53, 20.69 27.38, 8.9 15.51 M73.58 61.43 C49.39 43.62, 27.73 21.17, 11.83 7.6 M71.62 60.45 C49.71 40.85, 27.11 22.91, 12.33 8.56 M80.16 54.88 C59.36 41.18, 42.25 25.2, 18.8 5.69 M77.68 56.83 C61.2 41.25, 42.27 24.04, 21.5 5.14 M87.33 50.42 C71.88 41.22, 60.64 28.91, 29.74 0.11 M85 51.11 C66.78 34.14, 46.88 17.98, 27.67 2.12 M85.75 41.39 C74.73 29.56, 57.05 15.64, 37.24 -0.78 M87.39 43.3 C77.34 32.86, 67.41 23.6, 35.36 -2.62 M87.44 32.05 C77.07 22.92, 63.98 9.33, 49.17 -1.04 M88.68 32.83 C79.28 24.08, 71.33 16.25, 47.88 -2.51" stroke="#343a40" stroke-width="1" fill="none"></path><path d="M55.65 1.24 C63.25 2.59, 71.81 8.4, 77.35 13.38 C82.89 18.35, 87.52 24.72, 88.88 31.11 C90.25 37.49, 89.09 45.68, 85.53 51.71 C81.96 57.74, 74.33 63.5, 67.5 67.29 C60.66 71.09, 52.41 74.26, 44.51 74.47 C36.61 74.69, 26.83 72.35, 20.07 68.59 C13.31 64.82, 7.35 58.06, 3.96 51.88 C0.57 45.7, -1.27 37.9, -0.26 31.52 C0.74 25.15, 4.63 18.59, 9.99 13.62 C15.34 8.66, 22.58 3.42, 31.85 1.72 C41.11 0.03, 58.87 2.08, 65.59 3.43 C72.31 4.78, 72.7 9.24, 72.16 9.83 M45.62 0.01 C52.73 -0.55, 61.23 2.78, 67.52 6.49 C73.81 10.2, 79.82 16.34, 83.37 22.27 C86.92 28.2, 89.71 35.67, 88.83 42.07 C87.95 48.48, 83.39 55.46, 78.1 60.7 C72.81 65.94, 65.15 71.61, 57.09 73.51 C49.04 75.41, 37.81 74.05, 29.76 72.11 C21.71 70.18, 13.67 67.11, 8.8 61.89 C3.94 56.67, 1.4 47.69, 0.58 40.78 C-0.24 33.88, 0.58 26.21, 3.89 20.45 C7.19 14.68, 13.72 9.72, 20.4 6.19 C27.08 2.67, 40.05 0.05, 43.96 -0.73 C47.88 -1.51, 43.82 0.64, 43.89 1.52" stroke="#000000" stroke-width="2" fill="none"></path></g><g stroke-linecap="round" transform="translate(11.356092686620741 11.388591715238363) rotate(179.5975661996497 198.3803438762044 193.7695086578542)"><path d="M32 0 M32 0 C138.15 -1.01, 245.98 -1.52, 364.76 0 M32 0 C128.66 -1.49, 225.58 -2.74, 364.76 0 M364.76 0 C384.14 0.01, 397.12 9.69, 396.76 32 M364.76 0 C386.22 -0.37, 394.64 9.12, 396.76 32 M396.76 32 C395.88 110.45, 396.14 187.17, 396.76 355.54 M396.76 32 C397.43 128.51, 398.49 225.54, 396.76 355.54 M396.76 355.54 C397.21 376.88, 384.11 387.68, 364.76 387.54 M396.76 355.54 C394.47 376.47, 387.66 385.62, 364.76 387.54 M364.76 387.54 C239.22 388.84, 112.44 388.54, 32 387.54 M364.76 387.54 C240.29 386.18, 115.96 386.74, 32 387.54 M32 387.54 C8.91 386.55, -1.82 377.89, 0 355.54 M32 387.54 C9.49 388.78, -0.77 376.26, 0 355.54 M0 355.54 C-0.47 233.21, -0.53 109.34, 0 32 M0 355.54 C1.43 270.3, 0.45 184.07, 0 32 M0 32 C-0.27 9.24, 10.56 -0.08, 32 0 M0 32 C1.54 10.01, 10.95 1.26, 32 0" stroke="transparent" stroke-width="2" fill="none"></path></g></svg>
