<svg version="1.1" xmlns="http://www.w3.org/2000/svg" viewBox="0 0 416.7606877524088 407.5390173157084" width="1250.2820632572264" height="1222.6170519471252">
  <!-- svg-source:excalidraw -->

  <defs>
    <style class="style-fonts">
      @font-face {
        font-family: "Virgil";
        src: url("https://excalidraw.com/Virgil.woff2");
      }
      @font-face {
        font-family: "Cascadia";
        src: url("https://excalidraw.com/Cascadia.woff2");
      }
    </style>
  </defs>
  <rect x="0" y="0" width="416.7606877524088" height="407.5390173157084" fill="#ffffff"></rect><g stroke-linecap="round"><g transform="translate(115.8184489397961 105.47639522550162) rotate(269.56173078958676 -1.0510812447450917 98.00034704273821)"><path d="M-0.19 -0.67 C-0.4 32.04, -0.85 164.03, -0.95 196.67 M-1.75 1.6 C-2.11 33.89, -1.77 162.36, -1.68 194.75" stroke="#000000" stroke-width="2" fill="none"></path></g></g><mask></mask><g stroke-linecap="round"><g transform="translate(303.3697626548526 110.32124114851285) rotate(269.56173078958676 -94.22100707935829 1.0962349376904967)"><path d="M-0.07 -0.92 C-31.38 -0.21, -156.09 2.62, -187.25 3.11 M-1.57 1.22 C-33.11 1.69, -157.34 1.13, -188.37 1.46" stroke="#000000" stroke-width="2" fill="none"></path></g></g><mask></mask><g stroke-linecap="round" transform="translate(164.39716204805495 166.62031220519566) rotate(269.56173078958676 44.212412641157925 37.14919645265945)"><path d="M13.33 10.26 C13.33 10.26, 13.33 10.26, 13.33 10.26 M13.33 10.26 C13.33 10.26, 13.33 10.26, 13.33 10.26 M3.71 32.27 C11.55 24.05, 17.34 14.87, 29.8 3.36 M3.69 32.57 C14.83 21.46, 24.22 9.38, 28.51 3.21 M6.96 44.92 C16.54 32.32, 25.53 22, 38.46 4.89 M5.8 43.23 C16.2 31.74, 25.76 19.58, 39.93 4.2 M7.54 54.01 C20.02 40.67, 29.37 26.35, 48.14 6.63 M6.26 55.55 C22.5 34.94, 38.95 16.64, 50.32 4.18 M13.56 59.66 C24.16 46.58, 40.21 31.17, 63.71 1.54 M11.61 59.08 C31.68 38.71, 50.49 15.87, 61.68 3.4 M16.6 65.24 C27.63 51.94, 39.78 39.7, 69.88 8.12 M17.05 65.69 C36.85 46.48, 54.75 24.54, 67.94 7.43 M24.4 69.29 C42.01 51.33, 57.94 31.76, 73.89 11.85 M24.15 71.97 C38.6 54.33, 52.83 38.04, 75.59 11.94 M33.25 73.19 C48.28 55.33, 69.36 31.98, 82.72 17.86 M31.38 74.17 C51.66 52.2, 70.58 29.37, 82.04 15.83 M43.58 76.68 C52.4 64.41, 63.49 53.05, 83.97 24.26 M42.77 74.27 C55.45 59.9, 69.8 44.01, 86.62 23.91 M53.55 70.92 C62.04 63.07, 69.9 55.62, 89.97 31.82 M55.63 72.36 C66.17 60.23, 75.37 48.91, 89.74 33.04 M68.79 68.88 C76.13 60.38, 84.46 48.65, 93.56 40.4 M67.3 69.44 C73.96 63.42, 78.41 56.02, 94.76 37.95 M18.04 66.13 C18.04 66.13, 18.04 66.13, 18.04 66.13 M18.04 66.13 C18.04 66.13, 18.04 66.13, 18.04 66.13 M38.29 74.09 C27.32 66.44, 17.74 54.38, 4.73 45.09 M39.96 73.95 C32.1 68.68, 26.29 62.54, 5.8 46.3 M47.59 69.03 C33.14 57.91, 17.55 44.24, 6 33.44 M46.41 70.4 C31.05 56.42, 16.83 44.12, 5.72 34.23 M56.05 67.35 C37.42 49.7, 17.45 33.91, 5.65 25.01 M55.57 68.02 C43.04 54.63, 28.04 44.25, 5.99 24.45 M66.16 65.96 C56.97 56.92, 43.12 44.97, 9.31 15.93 M68.2 66.41 C51.57 51.45, 34.81 37.1, 9.46 17.91 M75.63 62.57 C56.84 46.13, 39.06 32.6, 14.95 10.37 M74.4 62.6 C56.99 48.18, 42.01 33.14, 13.39 9.81 M78.89 55.5 C55.91 35.66, 35.42 18.41, 21.47 7.69 M81.27 56.16 C68.3 46.28, 56.61 34.77, 23.05 7.17 M87.43 51.29 C63.66 33.89, 43.99 16.92, 31.23 4.78 M86.37 51.22 C70.43 36.26, 53.85 22.9, 30.4 2.55 M88.02 44.09 C75.45 30.75, 57.88 16.81, 36.61 -2.09 M87.97 43.34 C76.97 31.8, 64.75 22.37, 37.72 -1.64 M90.19 30.91 C80.42 23.62, 69.05 14.33, 49.16 -3.2 M89.67 33.09 C81.15 26.06, 73 18.86, 50.86 -1.75" stroke="#343a40" stroke-width="1" fill="none"></path><path d="M59.75 1.34 C67.21 3.07, 75.5 9, 80.35 14.34 C85.19 19.68, 88.3 26.64, 88.81 33.4 C89.31 40.16, 87.18 48.95, 83.4 54.89 C79.62 60.84, 73.01 65.77, 66.11 69.08 C59.21 72.4, 49.95 75.22, 41.99 74.77 C34.02 74.31, 24.97 70.33, 18.31 66.37 C11.66 62.41, 5.04 57.17, 2.05 51 C-0.94 44.83, -1.47 36.09, 0.38 29.34 C2.22 22.59, 7.27 15.14, 13.11 10.52 C18.94 5.9, 27.28 2.8, 35.37 1.63 C43.47 0.45, 56.64 2.99, 61.68 3.46 C66.72 3.93, 65.69 4.05, 65.63 4.45 M39.75 -1.07 C47.3 -2.1, 58.37 0.59, 65.5 4.1 C72.63 7.6, 78.63 14.21, 82.54 19.97 C86.45 25.73, 89.24 32.14, 88.99 38.66 C88.73 45.19, 86.04 53.73, 80.98 59.13 C75.92 64.54, 66.29 68.72, 58.63 71.09 C50.96 73.46, 42.68 74.71, 34.97 73.36 C27.27 72.01, 17.9 67.58, 12.41 62.97 C6.92 58.35, 3.63 52.36, 2.04 45.67 C0.46 38.97, 0.47 28.95, 2.89 22.79 C5.31 16.64, 10.24 12.75, 16.57 8.74 C22.9 4.74, 36.65 0.07, 40.87 -1.25 C45.09 -2.57, 41.78 -0.22, 41.89 0.8" stroke="#000000" stroke-width="2" fill="none"></path></g><g stroke-linecap="round" transform="translate(10 10) rotate(0 198.3803438762044 193.7695086578542)"><path d="M32 0 M32 0 C139.56 1.98, 249.35 1.98, 364.76 0 M32 0 C157.82 0.43, 283.42 -0.24, 364.76 0 M364.76 0 C384.85 -1.54, 397 9.18, 396.76 32 M364.76 0 C387.2 -1.5, 397.41 8.61, 396.76 32 M396.76 32 C397.69 98.71, 396.38 168.42, 396.76 355.54 M396.76 32 C396.84 155.32, 396.99 278.42, 396.76 355.54 M396.76 355.54 C396.47 374.88, 387.55 386.26, 364.76 387.54 M396.76 355.54 C397.14 375.05, 384.04 387.91, 364.76 387.54 M364.76 387.54 C256.61 390.34, 150.5 388.23, 32 387.54 M364.76 387.54 C266.17 386.58, 166.42 386.4, 32 387.54 M32 387.54 C8.93 388.79, -1.43 377.82, 0 355.54 M32 387.54 C12.07 388.95, -0.37 378.1, 0 355.54 M0 355.54 C2.46 247.31, 1.63 135.62, 0 32 M0 355.54 C1.53 270.33, 2.27 185.73, 0 32 M0 32 C-0.37 12.64, 10.33 -1.86, 32 0 M0 32 C-1.12 12.78, 8.44 1.64, 32 0" stroke="transparent" stroke-width="2" fill="none"></path></g></svg>
