<svg version="1.1" xmlns="http://www.w3.org/2000/svg" viewBox="0 0 420.4209350335384 408.5552249372504" width="1261.2628051006152" height="1225.6656748117512">
  <!-- svg-source:excalidraw -->

  <defs>
    <style class="style-fonts">
      @font-face {
        font-family: "Virgil";
        src: url("https://excalidraw.com/Virgil.woff2");
      }
      @font-face {
        font-family: "Cascadia";
        src: url("https://excalidraw.com/Cascadia.woff2");
      }
    </style>
  </defs>
  <rect x="0" y="0" width="420.4209350335384" height="408.5552249372504" fill="#ffffff"></rect><g stroke-linecap="round"><g transform="translate(17.362069831102872 202.79736707353368) rotate(180.1469336235192 195.8586100944682 0.5973676499597786)"><path d="M0.08 1.12 C65.45 0.92, 327.68 0.15, 393.06 -0.17 M-1.34 0.67 C63.89 1.18, 327.13 1.44, 392.64 1.35" stroke="#000000" stroke-width="2" fill="none"></path></g></g><mask></mask><g stroke-linecap="round" transform="translate(10.496264288071643 10.508103810769171) rotate(180.1469336235192 198.3803438762044 193.7695086578542)"><path d="M32 0 M32 0 C133.94 -1.59, 235.18 -2.34, 364.76 0 M32 0 C161.69 -1.39, 290.89 -2.04, 364.76 0 M364.76 0 C386.66 1.8, 395.47 10.4, 396.76 32 M364.76 0 C384.39 1.73, 396.05 8.66, 396.76 32 M396.76 32 C397.03 107.58, 396.11 182.65, 396.76 355.54 M396.76 32 C399 139.44, 398.1 247.77, 396.76 355.54 M396.76 355.54 C394.97 378.21, 386.51 389.31, 364.76 387.54 M396.76 355.54 C398.33 376.88, 387.65 385.84, 364.76 387.54 M364.76 387.54 C237.73 386.65, 108.2 386.17, 32 387.54 M364.76 387.54 C247.81 387.75, 131.26 387.46, 32 387.54 M32 387.54 C10.31 386.9, 0.81 374.9, 0 355.54 M32 387.54 C8.58 389.26, 0.75 375.58, 0 355.54 M0 355.54 C0.48 271.73, -0.59 187.49, 0 32 M0 355.54 C-0.68 235.43, -0.81 114.21, 0 32 M0 32 C-1.65 10.45, 9.09 -0.14, 32 0 M0 32 C-1.02 9.74, 10.18 -1.34, 32 0" stroke="transparent" stroke-width="2" fill="none"></path></g></svg>
