<svg version="1.1" xmlns="http://www.w3.org/2000/svg" viewBox="0 0 409.59982348479565 418.7733486887264" width="1228.799470454387" height="1256.3200460661792">
  <!-- svg-source:excalidraw -->

  <defs>
    <style class="style-fonts">
      @font-face {
        font-family: "Virgil";
        src: url("https://excalidraw.com/Virgil.woff2");
      }
      @font-face {
        font-family: "Cascadia";
        src: url("https://excalidraw.com/Cascadia.woff2");
      }
    </style>
  </defs>
  <rect x="0" y="0" width="409.59982348479565" height="418.7733486887264" fill="#ffffff"></rect><g stroke-linecap="round"><g transform="translate(205.96000898599203 18.830554116890198) rotate(359.26337189126207 -0.6714548502068283 97.31896179557134)"><path d="M0.05 -0.22 C0.08 32.46, -0.37 162.4, -0.58 195.11 M-1.39 -1.39 C-1.37 31.48, -1.04 162.93, -1.12 196.02" stroke="#000000" stroke-width="2" fill="none"></path></g></g><mask></mask><g stroke-linecap="round"><g transform="translate(390.6093875984364 209.42138927061387) rotate(359.26337189126207 -93.41392108423372 1.0596642383725339)"><path d="M0.78 -1.18 C-30.35 -0.82, -155.51 1.42, -186.74 1.91 M-0.27 0.82 C-31.55 1.37, -156.44 2.95, -187.61 3.3" stroke="#000000" stroke-width="2" fill="none"></path></g></g><mask></mask><g stroke-linecap="round" transform="translate(160.5886927798012 172.4667055967475) rotate(359.26337189126207 44.21241264115781 37.14919645265945)"><path d="M5.88 18.36 C5.88 18.36, 5.88 18.36, 5.88 18.36 M5.88 18.36 C5.88 18.36, 5.88 18.36, 5.88 18.36 M3.18 35.02 C10.95 22.9, 20.96 11.82, 28.02 4.72 M1.9 35.99 C6.5 28.7, 12.87 24.13, 29.02 5.02 M6.23 41.75 C16.65 30.86, 27.37 16.15, 42.21 4.04 M6.04 42.11 C13.47 34.42, 20.84 26.63, 39.84 3.93 M8 50.4 C20 39.96, 30.66 24.9, 52.56 2 M9.87 51.48 C23.71 32.8, 39.9 13.64, 51.82 1.45 M10.35 58.7 C25.29 42.76, 42.02 25.77, 58.85 6.52 M12.21 60.82 C21.62 48.25, 30.91 38.6, 59.91 4.91 M17.09 65.4 C27.99 50.01, 39.57 37.48, 65.96 7.69 M17.46 65.22 C28.97 52.87, 42.19 37.94, 67.48 7.99 M22.78 71.52 C41.88 53.28, 55.02 32.45, 76.71 11.28 M23.92 70.48 C41.67 50.72, 57.91 31.51, 75.59 12.34 M30.72 74.25 C45.64 59.82, 58.83 43.53, 79.97 19.7 M32.06 75.03 C43.01 60.61, 56.81 45.86, 80.49 17.59 M42.93 73.57 C53.02 61.74, 61.27 51.68, 87.18 22.82 M42.02 75.78 C58.93 54.44, 76.22 34.69, 86.57 24.33 M53.73 73.04 C63.87 59.65, 80.13 44.58, 92.64 28.54 M53.5 72.9 C61.76 65.02, 68.58 54.87, 92.03 29.7 M70.29 66.92 C76.24 59.84, 87.1 48.81, 91.52 41.69 M69.81 68.06 C75.43 60.26, 80.11 55.82, 91.32 42.42 M7.22 57.23 C7.22 57.23, 7.22 57.23, 7.22 57.23 M7.22 57.23 C7.22 57.23, 7.22 57.23, 7.22 57.23 M32.13 68.14 C25.97 59.68, 16.39 55.03, 3.35 41.09 M29.77 65.97 C21.58 59.7, 15.23 53.61, 2.57 41.12 M44.77 69.09 C34.03 58.57, 20.45 48.4, 3.61 33.88 M43.24 69.01 C36.48 60.83, 27.78 55.2, 4.87 33.51 M55.84 66.53 C38.86 52.21, 19.11 37.9, 5.73 23.97 M56.91 68.74 C40.2 53.58, 23.4 39.86, 7.34 26.07 M63.22 63.95 C51.25 54.71, 39.34 42.95, 9.79 13.89 M64.42 65.49 C43.16 47.07, 24.23 28.93, 7.26 14.87 M76.41 62.92 C53.77 44.08, 30.46 25.6, 16.06 8.66 M75.2 64.03 C62.26 52.58, 49.38 42.61, 14.92 10.66 M80.68 58.97 C65.12 45.96, 52.99 33.2, 23.15 5.7 M80.98 57.55 C62.5 43.58, 46.82 28.05, 21.15 5.95 M82.81 48.88 C70.79 39.25, 60.9 27.2, 28.94 2.22 M84.99 50.05 C66.42 34, 47.8 19.09, 26.68 0.37 M90.06 44.42 C77.68 33.86, 67.72 24.64, 39.4 0.75 M89.29 44.19 C76.08 31.51, 61.89 19.21, 38.34 -0.59 M88.95 32.8 C82.47 25.78, 72.19 19.85, 47.59 -1.01 M88.98 32.75 C78.34 23.94, 67.67 13.53, 48.49 -1.71" stroke="#343a40" stroke-width="1" fill="none"></path><path d="M48.58 -0.49 C56.11 -0.25, 65.02 3.57, 71.27 7.93 C77.52 12.29, 83.51 19.1, 86.09 25.68 C88.68 32.25, 88.64 41.05, 86.78 47.38 C84.92 53.71, 80.77 59.36, 74.93 63.67 C69.08 67.98, 59.67 71.92, 51.69 73.21 C43.72 74.5, 34.48 74.07, 27.08 71.42 C19.68 68.76, 11.66 62.84, 7.29 57.29 C2.92 51.74, 1.03 44.66, 0.84 38.12 C0.65 31.58, 2.07 23.9, 6.17 18.03 C10.28 12.16, 17.65 5.77, 25.49 2.91 C33.32 0.04, 48.07 0.84, 53.2 0.83 C58.33 0.81, 56.27 2.24, 56.26 2.82 M42.14 -0.46 C49.8 -1, 60.22 2.09, 67 5.77 C73.77 9.46, 79.15 15.64, 82.79 21.65 C86.43 27.65, 89.69 35.25, 88.82 41.79 C87.95 48.33, 82.79 55.83, 77.56 60.89 C72.33 65.95, 64.74 70.11, 57.45 72.16 C50.15 74.21, 41.52 74.62, 33.77 73.16 C26.02 71.71, 16.27 68.56, 10.95 63.41 C5.63 58.27, 3.18 49.14, 1.88 42.31 C0.57 35.48, -0.01 28.23, 3.13 22.44 C6.28 16.65, 14.3 11.49, 20.74 7.58 C27.19 3.68, 38.29 -0.08, 41.83 -0.99 C45.36 -1.9, 41.52 1.27, 41.96 2.12" stroke="#000000" stroke-width="2" fill="none"></path></g><g stroke-linecap="round" transform="translate(6.419567866192494 15.617165686508088) rotate(89.70164110167522 198.38034387620445 193.7695086578542)"><path d="M32 0 M32 0 C135.81 -1.46, 240 -1.45, 364.76 0 M32 0 C107.19 0.04, 182.78 0.65, 364.76 0 M364.76 0 C384.67 -0.58, 395.74 10.38, 396.76 32 M364.76 0 C386.03 -1.29, 394.49 12.54, 396.76 32 M396.76 32 C398.01 118.33, 396.53 207.48, 396.76 355.54 M396.76 32 C397.6 99.1, 397.34 166.03, 396.76 355.54 M396.76 355.54 C395.67 376.24, 386.02 388.12, 364.76 387.54 M396.76 355.54 C395.07 378.23, 387.14 388.15, 364.76 387.54 M364.76 387.54 C284.09 387.64, 204.08 386.29, 32 387.54 M364.76 387.54 C239.24 385.67, 114.72 386.28, 32 387.54 M32 387.54 C9.16 386.19, -1.36 378.69, 0 355.54 M32 387.54 C12.79 388.15, 1.46 377.45, 0 355.54 M0 355.54 C2.02 234.66, 1.56 111.92, 0 32 M0 355.54 C-0.22 275.42, -0.37 194.58, 0 32 M0 32 C-1.23 11.8, 10.45 0.1, 32 0 M0 32 C-2 11.78, 12.48 1.69, 32 0" stroke="transparent" stroke-width="2" fill="none"></path></g><g stroke-linecap="round"><g transform="translate(207.0463136061772 213.75031386228875) rotate(359.26337189126207 -0.6284072454283773 94.64966819523397)"><path d="M-0.86 -0.52 C-1.26 31.01, -2.01 157.08, -2.15 188.75 M0.9 1.82 C0.85 33.51, 0.71 158.33, 0.11 189.82" stroke="#000000" stroke-width="2" fill="none"></path></g></g><mask></mask></svg>
