<svg version="1.1" xmlns="http://www.w3.org/2000/svg" viewBox="0 0 416.7606877524088 407.5390173157084" width="1250.2820632572264" height="1222.6170519471252">
  <!-- svg-source:excalidraw -->

  <defs>
    <style class="style-fonts">
      @font-face {
        font-family: "Virgil";
        src: url("https://excalidraw.com/Virgil.woff2");
      }
      @font-face {
        font-family: "Cascadia";
        src: url("https://excalidraw.com/Cascadia.woff2");
      }
    </style>
  </defs>
  <rect x="0" y="0" width="416.7606877524088" height="407.5390173157084" fill="#ffffff"></rect><g stroke-linecap="round"><g transform="translate(115.81844893979542 105.47639522550162) rotate(269.56173078958676 -0.47800253170669293 97.89496423328546)"><path d="M-0.61 0.29 C-1.16 32.72, -2.23 162.78, -2.23 195.35 M1.27 -0.6 C1 31.89, 0.41 163.51, 0.03 196.39" stroke="#000000" stroke-width="2" fill="none"></path></g></g><mask></mask><g stroke-linecap="round"><g transform="translate(301.2887445211004 110.3212411485074) rotate(269.56173078958676 -92.91507691827337 0.9553580415513352)"><path d="M-0.87 -0.94 C-31.79 -0.72, -155.05 1.04, -186.15 1.62 M0.88 1.18 C-30.08 1.53, -155.14 2.38, -186.71 2.85" stroke="#000000" stroke-width="2" fill="none"></path></g></g><mask></mask><g stroke-linecap="round" transform="translate(164.39716204805518 166.62031220519566) rotate(269.56173078958676 44.21241264115781 37.14919645265945)"><path d="M12.29 12.01 C12.29 12.01, 12.29 12.01, 12.29 12.01 M12.29 12.01 C12.29 12.01, 12.29 12.01, 12.29 12.01 M3.91 33.1 C12.61 26.81, 15.78 18.7, 30.32 3.55 M4.52 33.94 C10.18 26.18, 16.99 19.09, 30.32 3.29 M7.09 43.39 C14.89 33.19, 22.94 26.35, 40.38 6.23 M6.68 43.67 C17.51 31.4, 25.87 19.8, 38.57 4.97 M8.36 55.22 C16.53 42, 30.06 29.14, 48.71 7.91 M6.47 54.02 C15.74 43.16, 25.95 31.9, 49.77 6.45 M14.55 60.51 C26.38 45.7, 40.8 29.32, 63.01 4.45 M12.44 61.08 C30.29 39.18, 47.65 18.79, 60.39 4.77 M18.59 67.03 C29.25 52.12, 43.16 36.83, 66.17 9.34 M18.96 66.77 C32.32 47.51, 49.6 30.25, 67.72 8.25 M25.53 73.06 C37.53 57.93, 52.52 42.69, 74.15 11.06 M24.38 72.91 C42.57 49.41, 64.05 25.2, 74.75 12.28 M31.54 75.74 C48.02 57.2, 67.73 37.77, 84.59 14.85 M31.07 76.01 C45.02 58.42, 61.31 40.48, 82.95 16.46 M41.57 73.13 C53.62 61.38, 68.72 44.13, 85.72 24.2 M41.22 74.7 C54.62 62.42, 65.39 49.93, 86.24 24.5 M57.57 70.58 C63.47 64.5, 71.99 56.44, 89.11 33.61 M56.14 70.51 C66.8 59.45, 77.63 47.87, 87.84 34.41 M66.22 68.99 C72.85 63.69, 79.33 58.58, 85.49 49.77 M68.08 69.56 C70.49 67.03, 74.23 61.42, 85.17 50.04 M18 67.7 C18 67.7, 18 67.7, 18 67.7 M18 67.7 C18 67.7, 18 67.7, 18 67.7 M38.57 75.38 C30.85 68.35, 23.06 60.43, 7.68 47.66 M36.94 73.45 C28.06 66.81, 19.47 57.85, 7.17 46.41 M45.22 69.99 C35.07 58.99, 22.68 51.55, 4.94 33.49 M45.84 71.13 C33.34 60.26, 20.67 47.78, 3.79 33.65 M55.1 66.91 C37.23 51.08, 14.03 35.25, 3.36 24 M55.55 67.6 C42.39 57.15, 29.89 45.76, 4.56 23.22 M66.31 66.1 C45.81 49.34, 29.8 34.99, 8.57 15.34 M67.21 67.27 C56.03 56.66, 42.14 46.35, 8.47 17.93 M71.79 63.49 C55.33 50.18, 39.9 34.77, 12.75 8.74 M72.54 62.94 C52.05 44.35, 30.58 26.04, 13.69 10.82 M79.42 56.6 C64.14 45.08, 52.94 31.86, 20.65 7.7 M79.07 57.89 C66 45.44, 51.38 32.7, 21.68 7.71 M86.6 50.92 C75.65 43.8, 60.76 30.7, 29.97 1.65 M84.83 51.66 C67.77 38.74, 52.25 23.31, 28.65 3.27 M87.63 44.67 C68.76 28.42, 49.29 11.1, 35.84 -2.24 M86.78 43.16 C68.36 28.58, 51.94 12.17, 36.13 -1.73 M86.83 32.57 C76.61 24.48, 64.62 13.78, 50.26 -2.27 M88.07 33.92 C78.17 23.67, 68.02 13.95, 49.52 -1.25 M81.74 17.63 C75.45 10.5, 70.88 7.47, 60.97 -0.62 M80.3 16.24 C74.48 11.16, 69.26 7.2, 61.05 -1.02" stroke="#343a40" stroke-width="1" fill="none"></path><path d="M33.66 1.76 C40.86 0, 51.46 0.7, 58.98 2.64 C66.5 4.59, 74.02 8.16, 78.79 13.45 C83.57 18.74, 86.73 27.71, 87.65 34.4 C88.57 41.09, 87.99 47.89, 84.32 53.59 C80.66 59.29, 72.72 65.02, 65.67 68.6 C58.61 72.19, 49.9 75.2, 42.01 75.1 C34.12 75, 24.72 72.09, 18.35 67.99 C11.98 63.9, 6.83 56.99, 3.79 50.5 C0.75 44.01, -1.27 35.44, 0.11 29.06 C1.49 22.68, 5.78 17.14, 12.09 12.24 C18.39 7.34, 32.89 1.62, 37.94 -0.34 C42.99 -2.31, 42.23 -0.26, 42.39 0.43 M25.28 3.59 C31.84 0.24, 42.78 -2.1, 50.79 -0.96 C58.8 0.18, 67.16 5.61, 73.34 10.43 C79.52 15.25, 85.44 21.89, 87.87 27.94 C90.29 33.98, 90.23 40.7, 87.87 46.72 C85.5 52.75, 79.68 59.81, 73.67 64.09 C67.66 68.37, 59.83 71.2, 51.82 72.4 C43.82 73.59, 33.06 73.95, 25.64 71.25 C18.22 68.56, 11.36 61.79, 7.31 56.24 C3.25 50.69, 1.21 44.57, 1.3 37.97 C1.4 31.36, 3.73 22.56, 7.88 16.59 C12.03 10.62, 22.98 4.21, 26.21 2.12 C29.43 0.03, 27.22 3.18, 27.23 4.05" stroke="#000000" stroke-width="2" fill="none"></path></g><g stroke-linecap="round" transform="translate(10 10) rotate(0 198.3803438762044 193.7695086578542)"><path d="M32 0 M32 0 C153.01 0, 272.94 2.06, 364.76 0 M32 0 C137.29 0.18, 244.14 1.17, 364.76 0 M364.76 0 C384.73 -1.07, 395.21 10.74, 396.76 32 M364.76 0 C388.05 -0.25, 398.26 12.21, 396.76 32 M396.76 32 C394.85 118.95, 395.56 202.6, 396.76 355.54 M396.76 32 C395.73 157.75, 396.3 284.67, 396.76 355.54 M396.76 355.54 C396.29 377.07, 386.79 385.79, 364.76 387.54 M396.76 355.54 C397.3 379.15, 388.08 389.75, 364.76 387.54 M364.76 387.54 C238.08 389.02, 111.87 387.66, 32 387.54 M364.76 387.54 C260.37 386.07, 155.25 385.5, 32 387.54 M32 387.54 C11.43 385.79, 1.63 376.79, 0 355.54 M32 387.54 C8.77 388.34, 1.66 376.53, 0 355.54 M0 355.54 C-1.49 278.14, -0.67 203.99, 0 32 M0 355.54 C-0.3 266.65, -0.56 178.87, 0 32 M0 32 C0.55 10.42, 11.74 -0.39, 32 0 M0 32 C1.52 9.26, 9.7 0.3, 32 0" stroke="transparent" stroke-width="2" fill="none"></path></g><g stroke-linecap="round"><g transform="translate(308.0291418117763 108.01746191672646) rotate(269.56173078958676 -0.08556532965963015 94.17283599022358)"><path d="M-0.94 -0.31 C-0.92 31.28, -0.47 158.26, -0.42 189.86 M0.77 -1.52 C0.76 29.66, -0.6 155.85, -0.9 187.86" stroke="#000000" stroke-width="2" fill="none"></path></g></g><mask></mask><g stroke-linecap="round"><g transform="translate(304.37732673125447 296.3657131470245) rotate(269.56173078958676 -93.1035532021217 0.879539199851024)"><path d="M-1.2 -0.92 C-32.4 -0.41, -155 2.2, -186.07 2.68 M0.37 1.22 C-31.02 1.4, -155.06 0.48, -186.58 0.8" stroke="#000000" stroke-width="2" fill="none"></path></g></g><mask></mask></svg>
