<svg version="1.1" xmlns="http://www.w3.org/2000/svg" viewBox="0 0 416.7606877524088 407.5390173157084" width="1250.2820632572264" height="1222.6170519471252">
  <!-- svg-source:excalidraw -->

  <defs>
    <style class="style-fonts">
      @font-face {
        font-family: "Virgil";
        src: url("https://excalidraw.com/Virgil.woff2");
      }
      @font-face {
        font-family: "Cascadia";
        src: url("https://excalidraw.com/Cascadia.woff2");
      }
    </style>
  </defs>
  <rect x="0" y="0" width="416.7606877524088" height="407.5390173157084" fill="#ffffff"></rect><g stroke-linecap="round"><g transform="translate(115.81844893979542 105.47639522550162) rotate(269.56173078958676 0.13742041892135148 97.48336536060378)"><path d="M0.77 -0.36 C0.87 32.21, 0.12 163.74, -0.17 196.56 M-0.29 -1.59 C-0.18 31.1, -0.28 161.32, -0.5 194.58" stroke="#000000" stroke-width="2" fill="none"></path></g></g><mask></mask><g stroke-linecap="round"><g transform="translate(303.3697626548528 110.32124114851104) rotate(269.56173078958676 -93.06554922921316 0.9124129044794245)"><path d="M1.18 0.27 C-30.04 0.74, -155.19 2.29, -186.55 2.46 M0.35 -0.63 C-31.07 -0.51, -155.96 0.01, -187.31 0.46" stroke="#000000" stroke-width="2" fill="none"></path></g></g><mask></mask><g stroke-linecap="round" transform="translate(164.39716204805518 166.62031220519566) rotate(269.56173078958676 44.21241264115781 37.14919645265945)"><path d="M3.41 21.51 C3.41 21.51, 3.41 21.51, 3.41 21.51 M3.41 21.51 C3.41 21.51, 3.41 21.51, 3.41 21.51 M1.2 36.85 C7.93 27.37, 16.24 16.87, 22.39 11.22 M1.26 36.36 C6.96 27.65, 13.87 21.23, 24.14 10.62 M3.52 45.98 C12.6 34.69, 23.82 19.92, 44.9 0.1 M2.89 46.11 C13.79 33.33, 24.43 21.6, 43.33 -0.46 M6.85 53.78 C17.65 39.16, 29.12 28.48, 51.88 0.59 M7.76 53.23 C24.2 34.32, 41.34 15.38, 51.91 2.36 M11.3 62.48 C26.24 44.23, 42.81 27.75, 60.25 3.73 M11.03 61.48 C28.86 40.3, 46.48 20.58, 60.32 3.82 M18.7 67.35 C36.85 45.16, 56.13 22.47, 70.13 7.13 M17.49 66.72 C29.93 52.03, 41.38 39.05, 69.76 7.13 M24.78 70.11 C43.74 52.41, 61.68 29.83, 74.72 12.8 M23.19 71.47 C37.45 55.13, 51.7 39.98, 74.55 11.98 M30.5 72.43 C44.99 57.88, 57.1 45.68, 80.32 19.09 M31.12 74.45 C51.22 52.28, 70.03 29.01, 81.45 17.45 M44.08 74.54 C55.25 59.15, 72.26 41.26, 88.46 24.66 M42.73 74.31 C54.29 58.22, 66.99 44.02, 86.3 22.17 M55.24 75.25 C64.92 61.04, 79.47 46.24, 89.98 31.64 M54.46 73.75 C66.56 57.23, 79.95 43.15, 89.45 32.56 M63.06 75.83 C68.69 67.33, 75.76 58.61, 88.95 44.8 M61.14 76.48 C73.16 63.44, 83.13 52.25, 90.09 44.05 M11.21 61.8 C11.21 61.8, 11.21 61.8, 11.21 61.8 M11.21 61.8 C11.21 61.8, 11.21 61.8, 11.21 61.8 M32.35 71.51 C25.03 61.24, 13.53 55.65, -0.19 40.97 M34.09 70.78 C25.75 65.14, 17.57 58.24, 0.41 41.88 M45.74 68.94 C33.63 57.78, 18.54 46.9, 3.97 34.02 M45.18 70.18 C30.46 58.37, 17.24 46.78, 2.36 32.44 M57.76 72.59 C38.49 55.66, 20.6 35.55, 3.32 22.41 M58.79 71.37 C47.2 62.2, 34.74 50.71, 3.36 22.79 M66.03 66.59 C54.35 56.61, 40.93 43.59, 8.49 18.01 M67.16 67.1 C42.81 48.15, 20.09 27.05, 8.32 15.87 M75.55 63.25 C55.63 48.12, 41.84 36.48, 11.94 9.55 M74.32 64.41 C61.48 52.11, 46.49 39.69, 13.08 11.43 M80.42 60.23 C60.72 40.16, 42 24.09, 18.83 5.43 M82.18 59.9 C61.9 41.95, 39.76 23.38, 18.63 5.96 M84.38 49.48 C75.01 42.35, 63.55 31.07, 29.84 1.38 M84.52 51.75 C63.02 31.66, 42.36 13.25, 28.33 2.4 M88.73 44.65 C75.15 29.99, 60.22 19.62, 38.65 0.13 M87.3 43.26 C70.51 28.1, 52.44 13.38, 38.85 0.95 M91.53 34.9 C82.76 29.55, 72.76 21.79, 45.34 -3.76 M91.26 35.72 C74.28 21.71, 56.82 6.06, 45.89 -4.02" stroke="#343a40" stroke-width="1" fill="none"></path><path d="M42.56 -0.14 C50.39 -0.85, 61.1 2.58, 68.09 5.98 C75.08 9.38, 81.25 14.37, 84.52 20.24 C87.8 26.12, 88.74 34.3, 87.75 41.22 C86.75 48.15, 83.39 56.48, 78.53 61.8 C73.66 67.13, 66.31 71.19, 58.56 73.16 C50.81 75.13, 39.93 75.53, 32.02 73.63 C24.12 71.72, 16.44 66.81, 11.14 61.74 C5.84 56.67, 1.55 49.88, 0.22 43.23 C-1.11 36.57, 0.04 27.98, 3.15 21.81 C6.25 15.64, 11.09 9.8, 18.85 6.2 C26.61 2.6, 43.54 1.03, 49.69 0.19 C55.85 -0.64, 56.04 0.54, 55.8 1.2 M64.77 2.62 C71.77 4.64, 77.91 11.06, 81.7 16.9 C85.49 22.75, 87.81 30.58, 87.51 37.66 C87.22 44.75, 84.44 53.79, 79.93 59.41 C75.42 65.04, 67.96 68.97, 60.44 71.41 C52.92 73.85, 42.55 75.44, 34.83 74.04 C27.1 72.63, 19.68 67.51, 14.09 63 C8.5 58.48, 3.44 53.04, 1.29 46.94 C-0.86 40.84, -1.49 32.66, 1.17 26.38 C3.82 20.1, 10.81 13.53, 17.24 9.27 C23.67 5.01, 32.05 1.68, 39.77 0.8 C47.48 -0.07, 59.74 3.62, 63.54 4.04 C67.33 4.47, 62.57 2.82, 62.53 3.36" stroke="#000000" stroke-width="2" fill="none"></path></g><g stroke-linecap="round" transform="translate(10 10) rotate(0 198.3803438762044 193.7695086578542)"><path d="M32 0 M32 0 C140.57 1.14, 250.38 -0.1, 364.76 0 M32 0 C159.03 -1.43, 286.76 -1.02, 364.76 0 M364.76 0 C388.04 1.84, 398 9.25, 396.76 32 M364.76 0 C387.48 -0.77, 395.9 9.78, 396.76 32 M396.76 32 C394.93 127.29, 395.78 222.91, 396.76 355.54 M396.76 32 C394.9 128.73, 394.58 224.57, 396.76 355.54 M396.76 355.54 C397.51 375.01, 385.23 385.6, 364.76 387.54 M396.76 355.54 C395.42 375.33, 385.38 388.95, 364.76 387.54 M364.76 387.54 C275.91 385.73, 185.31 385.54, 32 387.54 M364.76 387.54 C247.69 389.79, 130.1 389.54, 32 387.54 M32 387.54 C9.77 387.58, -1.71 375.12, 0 355.54 M32 387.54 C12.28 387.45, -0.7 377.11, 0 355.54 M0 355.54 C-0.42 254.87, 0.42 154.34, 0 32 M0 355.54 C0.05 237.49, -0.62 118.38, 0 32 M0 32 C0.2 10.1, 12.31 -0.69, 32 0 M0 32 C0.01 8.54, 11.81 -1.58, 32 0" stroke="transparent" stroke-width="2" fill="none"></path></g><g stroke-linecap="round"><g transform="translate(308.0291418117763 108.01746191672828) rotate(269.56173078958676 0.03904065743915908 95.31314195466712)"><path d="M-0.62 0.46 C-0.63 31.89, -0.34 157.83, -0.6 189.51 M1.26 -0.35 C1.2 31.2, -1.01 159.48, -1.18 190.97" stroke="#000000" stroke-width="2" fill="none"></path></g></g><mask></mask></svg>
