<svg version="1.1" xmlns="http://www.w3.org/2000/svg" viewBox="0 0 410.59726380214966 421.71280842610577" width="1231.791791406449" height="1265.1384252783173">
  <!-- svg-source:excalidraw -->

  <defs>
    <style class="style-fonts">
      @font-face {
        font-family: "Virgil";
        src: url("https://excalidraw.com/Virgil.woff2");
      }
      @font-face {
        font-family: "Cascadia";
        src: url("https://excalidraw.com/Cascadia.woff2");
      }
    </style>
  </defs>
  <rect x="0" y="0" width="410.59726380214966" height="421.71280842610577" fill="#ffffff"></rect><g stroke-linecap="round"><g transform="translate(8.579627123335513 206.89320633760508) rotate(90.44331765536722 196.4083753460451 0.22047713436495542)"><path d="M0.5 -0.86 C65.65 -0.87, 325.94 0.99, 391.23 0.91 M-0.7 1.3 C64.8 0.9, 328.13 -0.33, 393.52 -0.65" stroke="#000000" stroke-width="2" fill="none"></path></g></g><mask></mask><g stroke-linecap="round" transform="translate(6.9182880248695255 18.06964596816215) rotate(90.44331765536722 198.3803438762044 193.7695086578542)"><path d="M32 0 M32 0 C146.79 1.79, 257.83 1.72, 364.76 0 M32 0 C116.53 1.5, 201.08 1.96, 364.76 0 M364.76 0 C386.11 -1.65, 396.07 11.08, 396.76 32 M364.76 0 C387.59 0.56, 394.65 8.71, 396.76 32 M396.76 32 C396.56 136.6, 397.98 240.21, 396.76 355.54 M396.76 32 C397.07 111.46, 396.43 190.93, 396.76 355.54 M396.76 355.54 C396.95 378.62, 387.7 389.34, 364.76 387.54 M396.76 355.54 C396.33 377.31, 386.43 387.13, 364.76 387.54 M364.76 387.54 C265.1 385.47, 165.27 386.35, 32 387.54 M364.76 387.54 C252.78 385.63, 140.99 386.24, 32 387.54 M32 387.54 C11.93 387.05, -1.39 377.8, 0 355.54 M32 387.54 C12.59 385.59, -0.38 376.71, 0 355.54 M0 355.54 C-1.45 289.28, -0.51 223.04, 0 32 M0 355.54 C-0.87 287.13, -1.16 219.58, 0 32 M0 32 C0.12 12.62, 11.36 -1.33, 32 0 M0 32 C-0.32 10.9, 11.77 -1.66, 32 0" stroke="transparent" stroke-width="2" fill="none"></path></g></svg>
